<svg width="18" height="13" viewBox="0 0 18 13" fill="none" xmlns="http://www.w3.org/2000/svg">
<path d="M0.52 12.1581V7.47808C0.52 5.31809 1.02667 3.71809 2.04 2.67808C3.05333 1.61142 4.6 0.998084 6.68 0.838084L7.2 2.91808C4.90667 3.31808 3.76 4.41142 3.76 6.19808C3.76 6.25142 3.76 6.33142 3.76 6.43809C3.78667 6.51809 3.8 6.58475 3.8 6.63809H5.84V12.1581H0.52ZM11.2622 12.1581V7.47808C11.2622 5.31809 11.7689 3.71809 12.7822 2.67808C13.7955 1.61142 15.3422 0.998084 17.4222 0.838084L17.9422 2.91808C15.6489 3.31808 14.5022 4.41142 14.5022 6.19808C14.5022 6.25142 14.5022 6.33142 14.5022 6.43809C14.5289 6.51809 14.5422 6.58475 14.5422 6.63809H16.5822V12.1581H11.2622Z" fill="white"/>
</svg>
